<?xml version="1.0" encoding="utf-8"?>
<!-- Generator: Adobe Illustrator 24.1.2, SVG Export Plug-In . SVG Version: 6.00 Build 0)  -->
<svg version="1.1" id="Layer_1" xmlns="http://www.w3.org/2000/svg" xmlns:xlink="http://www.w3.org/1999/xlink" x="0px" y="0px"
	 viewBox="0 0 701.62 186.5" style="enable-background:new 0 0 701.62 186.5;" xml:space="preserve">
<style type="text/css">
	.st0{fill:#459B8E;}
	.st1{stroke:#FFFFFF;stroke-width:3;stroke-miterlimit:10;}
	.st2{fill:#FDE957;}
	.st3{fill:#DF484F;}
	.st4{font-family:'Minecrafter';}
	.st5{font-size:29.06px;}
	.st6{letter-spacing:2;}
	.st7{fill:none;stroke:#000000;stroke-width:2;stroke-miterlimit:10;}
</style>
<path class="st0" d="M22.51,0h656.6c12.43,0,22.51,10.08,22.51,22.51v105.75c0,12.43-10.08,22.51-22.51,22.51H22.51
	C10.08,150.77,0,140.69,0,128.26V22.51C0,10.08,10.08,0,22.51,0z"/>
<path class="st1" d="M126.17,25.45v111.74h35.75v-30.13h12.76v30.13h36.43V25.45H126.17z M175.83,81.32H162.3V50.21h13.53V81.32z"/>
<polygon class="st1" points="222.26,25.45 222.26,137.19 256.98,137.19 256.98,88 263.28,88 263.28,101.84 285.07,101.84 
	285.07,88.34 291.53,88.34 291.53,137.19 325.58,137.19 325.58,25.45 290.85,25.45 290.85,38.81 276.73,38.81 276.73,51.75 
	270.77,51.75 270.77,38.81 256.98,38.81 256.98,25.45 "/>
<polygon class="st1" points="115.66,25.45 35.49,25.45 35.49,39.24 21.45,39.24 21.45,124.26 34.56,124.26 34.56,137.19 
	115.66,137.19 115.66,85.45 74.73,85.45 74.73,99.75 87.15,99.75 87.15,107.75 57.7,107.75 57.7,54.13 115.66,54.13 "/>
<polygon class="st1" points="337.75,25.45 337.75,137.19 421.83,137.19 421.83,108.26 374.17,108.26 374.17,95.49 421.83,95.49 
	421.83,67.07 374.43,67.07 374.43,53.19 421.83,53.19 421.83,25.45 "/>
<polygon class="st2" points="122.98,18.81 42.81,18.81 42.81,32.6 28.77,32.6 28.77,117.62 41.87,117.62 41.87,130.55 
	122.98,130.55 122.98,78.81 82.05,78.81 82.05,93.11 94.47,93.11 94.47,101.11 65.02,101.11 65.02,47.49 122.98,47.49 "/>
<path class="st2" d="M133.45,18.81v111.74h35.74v-30.12h12.77v30.12h36.43V18.81H133.45z M183.11,74.68h-13.53v-31.1h13.53V74.68z"
	/>
<polygon class="st2" points="230.64,18.81 230.64,130.55 265.36,130.55 265.36,81.36 271.66,81.36 271.66,95.2 293.45,95.2 
	293.45,81.7 299.92,81.7 299.92,130.55 333.96,130.55 333.96,18.81 299.24,18.81 299.24,32.17 285.11,32.17 285.11,45.11 
	279.15,45.11 279.15,32.17 265.36,32.17 265.36,18.81 "/>
<polygon class="st2" points="345.58,18.81 345.58,130.55 429.66,130.55 429.66,101.62 382,101.62 382,88.85 429.66,88.85 
	429.66,60.43 382.26,60.43 382.26,46.55 429.66,46.55 429.66,18.81 "/>
<polygon class="st1" points="588.9,25.32 588.9,137.07 674,137.07 674,105.24 622.77,105.24 622.77,53.15 674,53.15 674,25.32 "/>
<rect x="437.87" y="25.45" class="st1" width="32.94" height="111.74"/>
<rect x="446.73" y="18.81" class="st3" width="32.94" height="111.74"/>
<polygon class="st1" points="484.85,25.45 484.85,137.19 517.53,137.19 517.53,97.87 528.43,97.87 528.43,115.92 541.19,115.92 
	541.19,137.19 573.36,137.19 573.36,25.45 540.51,25.45 540.51,64.77 529.11,64.77 529.11,46.13 516.64,46.13 516.64,25.45 "/>
<polygon class="st3" points="492.94,18.81 492.94,130.55 525.62,130.55 525.62,91.24 536.51,91.24 536.51,109.28 549.28,109.28 
	549.28,130.55 581.45,130.55 581.45,18.81 548.6,18.81 548.6,58.13 537.19,58.13 537.19,39.49 524.73,39.49 524.73,18.81 "/>
<polygon class="st3" points="595.41,18.81 595.41,130.55 680.51,130.55 680.51,98.72 629.28,98.72 629.28,46.64 680.51,46.64 
	680.51,18.81 "/>
<text transform="matrix(1 0 0 1 60.02 186.18)" class="st4 st5 st6">GAME</text>
<text transform="matrix(1.05 0 0 1 169.59 186.5002)" class="st4 st5">MINI</text>
<text transform="matrix(1.05 0 0 1 256.1398 186.5002)" class="st4 st5">CARNIVAL</text>
<text transform="matrix(1.05 0 0 1 433.7199 186.5002)" class="st4 st5">2016</text>
<text transform="matrix(1.05 0 0 1 545.4601 186.5002)" class="st4 st5">MC111</text>
<line class="st7" x1="527.41" y1="188.85" x2="537.94" y2="161.9"/>
</svg>
