<?xml version="1.0" encoding="utf-8"?>
<!-- Generator: Adobe Illustrator 24.1.2, SVG Export Plug-In . SVG Version: 6.00 Build 0)  -->
<svg version="1.1" id="Layer_1" xmlns="http://www.w3.org/2000/svg" xmlns:xlink="http://www.w3.org/1999/xlink" x="0px" y="0px"
	 viewBox="0 0 350.3 471.9" style="enable-background:new 0 0 350.3 471.9;" xml:space="preserve">
<style type="text/css">
	.st0{display:none;}
	.st1{display:inline;fill:#6D6E70;}
	.st2{display:inline;fill:#115175;}
	.st3{display:inline;}
	.st4{fill:#F79724;}
	.st5{fill:#284F91;}
	.st6{fill:#64BB48;}
	.st7{fill:#E41E2C;}
	.st8{fill:#115175;}
	.st9{fill:#FFFFFF;}
	.st10{fill:#231F20;}
	.st11{fill:#B6494B;}
	.st12{fill:#EE9624;}
	.st13{fill:#3C55A2;}
	.st14{fill:#67BC48;}
	.st15{fill:#134B67;}
	.st16{stroke:#FFFFFF;stroke-width:3;stroke-miterlimit:10;}
	.st17{fill:#B92048;}
	.st18{fill:#FFCB29;}
	.st19{fill:#3A1B4B;}
	.st20{fill:#A7B7D9;}
	.st21{fill:#C1C7D7;}
	.st22{fill:#F6D811;}
	.st23{fill:#F49825;}
	.st24{fill:#B91F47;}
	.st25{fill:#114040;}
	.st26{fill:#5F0A2F;}
	.st27{fill:#E46D26;}
	.st28{fill:#F58733;}
	.st29{fill:#6ACADB;}
	.st30{fill:#0D8484;}
	.st31{fill:#851A3D;}
	.st32{fill:#E2C842;}
	.st33{fill:#F9D67C;}
	.st34{opacity:0.8;fill:#FFFFFF;enable-background:new    ;}
	.st35{fill:none;stroke:#6CCBDC;stroke-width:4;stroke-miterlimit:10;}
	.st36{opacity:0.27;}
</style>
<g id="Layer_5" class="st0">
	<rect x="-94" y="-184" class="st1" width="595.3" height="841.9"/>
</g>
<g id="Layer_1_1_" class="st0">
	
		<image style="display:inline;overflow:visible;enable-background:new    ;" width="474" height="534" xlink:href="B0BC4C39.png"  transform="matrix(1 0 0 1 -34.3622 -30.0353)">
	</image>
</g>
<g id="Layer_2_1_" class="st0">
	<path class="st2" d="M203.6,21.8L52.1,110.4v133.2c0,0,24.2-54.7,78.1-59.2c0,0,11.3-8.2,72.4,18.6c0,0,53.3-24.2,76.4-18.6
		c23.1,5.6,51.4,18.2,75.5,59.2V112.2L203.6,21.8z M296.5,177c-37.6-15.3-92.9,15.3-92.9,15.3c-54.2-32.4-93.9-15.3-93.9-15.3v-33.9
		l93.9-53.6l92.9,54V177z"/>
	<g class="st3">
		<circle class="st4" cx="273.6" cy="232.5" r="10.6"/>
		<circle class="st5" cx="294.8" cy="255" r="10.6"/>
		<circle class="st6" cx="274.4" cy="274" r="10.6"/>
		<circle class="st7" cx="251.4" cy="255" r="10.6"/>
	</g>
	<g class="st3">
		<rect x="121.7" y="225.2" class="st8" width="24.2" height="53.9"/>
		<rect x="106.3" y="242.2" class="st8" width="55" height="21.6"/>
	</g>
	<g class="st3">
		<path class="st8" d="M204.3,299.2c-1.1,0-2.2,0.1-3.3,0.1c-4.9,0.2-9.8,0.6-14.7,1.2c-4.1,0.5-8.3,1.1-12.4,2
			c-3.4,0.7-6.8,1.6-10.2,2.6c-2.8,0.9-5.5,1.8-8.2,2.9c-2.5,1-5.1,2.1-7.3,3.6c-8.4,5.6-14.9,13.5-22.9,19.5
			c-3.6,2.6-7.3,5-11.2,7.1c-3.8,2-7.8,3.7-11.8,5c-4.1,1.3-8.3,2.3-12.6,2.9c-4.4,0.6-8.9,0.8-13.4,0.7c-3.8-0.1-7.5-1.4-10.7-3.5
			c-6.9-4.6-10.9-12.6-13.5-20.1c-3.4-9.6-5.1-19.9-6.1-30c-0.4-4.5-1.6-10.3-0.8-14.9c-1.6,8.8-2.8,17.8-2.9,26.8
			c-0.2,19.3,4.9,47.3,27.6,51.4c16.7,3,33.9,0.1,49-7.5c6.3-3.2,11.3-7.5,17-11.4c2.2-1.5,1.8-1.6,4.2-0.3c1.6,0.8,3.1,1.8,4.6,2.7
			c2.9,1.7,5.8,3.3,8.7,5c16.9,9.8,33.8,19.5,50.7,29.3L204.3,299.2L204.3,299.2z"/>
		<path class="st8" d="M204.1,299.2c1.1,0,2.2,0.1,3.3,0.1c4.9,0.2,9.8,0.6,14.7,1.2c4.1,0.5,8.3,1.1,12.4,2
			c3.4,0.7,6.8,1.6,10.2,2.6c2.8,0.9,5.5,1.8,8.2,2.9c2.5,1,5.1,2.1,7.3,3.6c8.4,5.6,14.9,13.5,23,19.5c3.5,2.6,7.3,5,11.2,7.1
			c3.8,2,7.8,3.7,11.8,5c4.1,1.3,8.3,2.3,12.6,2.9c4.4,0.6,8.9,0.8,13.4,0.7c3.8-0.1,7.5-1.4,10.7-3.5c6.9-4.6,10.9-12.6,13.5-20.1
			c3.4-9.6,5.1-19.9,6.1-30c0.4-4.5,1.6-10.3,0.8-14.9c1.6,8.8,2.8,17.8,2.9,26.8c0.2,19.3-4.9,47.3-27.6,51.4
			c-16.7,3-33.9,0.1-49-7.5c-6.3-3.2-11.3-7.5-17-11.4c-2.2-1.5-1.8-1.6-4.2-0.3c-1.6,0.8-3.1,1.8-4.6,2.7c-2.9,1.7-5.8,3.3-8.7,5
			c-16.9,9.8-33.8,19.5-50.7,29.3L204.1,299.2L204.1,299.2z"/>
	</g>
	<g class="st3">
		<g>
			<g>
				<path class="st9" d="M41.9,438.3v-40.6h6.6v-6.6h39.1v14.2h-28v25.2h13.8v-9.7h14.2v24.1H48.4v-6.6L41.9,438.3L41.9,438.3z"/>
				<path class="st9" d="M133.3,390.8v53.7h-17.5v-14.4h-6v14.4H92.2v-53.7H133.3z M110,417h5.6v-13.6H110V417z"/>
				<path class="st9" d="M156.4,390.8v6.6h6.8v6.1h2.5v-6.1h6.8v-6.6h16.6v53.7h-16.6v-22.8h-3v5.9h-10.6v-5.9h-2.5v22.8h-17.1
					v-53.7H156.4z"/>
				<path class="st9" d="M236.9,390.8V405H214v5.5h22.9v14.4H214v5.5h22.9v14.2h-40.6v-53.7L236.9,390.8L236.9,390.8z"/>
				<path class="st9" d="M261.9,390.8v53.7H245v-53.7H261.9z"/>
				<path class="st9" d="M295.9,390.8h16.1v53.7h-13h-4.4v-6.6v-3.8l-5.6,0.1v-9.1L283,425v19.5h-17.1v-53.7h17.5v6.6h6.4v6.3h6.2"
					/>
				<path class="st9" d="M316.7,390.8h6.6h37V405H334v25.3h26.2v14.2h-37h-6.6v-6.6"/>
			</g>
			<g>
				<g>
					<path class="st10" d="M44.9,435.3v-40.6h6.6v-6.6h39.1v14.2h-28v25.2h13.8v-9.7h14.2v24.1H51.4v-6.6L44.9,435.3L44.9,435.3z"/>
					<path class="st10" d="M136.3,387.8v53.7h-17.5v-14.4h-6v14.4H95.2v-53.7H136.3z M113,414h5.6v-13.6H113V414z"/>
					<path class="st10" d="M159.4,387.8v6.6h6.8v6.1h2.5v-6.1h6.8v-6.6h16.6v53.7h-16.6v-22.8h-3v5.9h-10.6v-5.9h-2.5v22.8h-17.1
						v-53.7H159.4z"/>
					<path class="st10" d="M239.9,387.8V402H217v5.5h22.9v14.4H217v5.5h22.9v14.2h-40.6v-53.7L239.9,387.8L239.9,387.8z"/>
					<path class="st10" d="M264.9,387.8v53.7H248v-53.7H264.9z"/>
					<path class="st10" d="M298.9,387.8h16.1v53.7h-13h-4.4v-6.6v-3.8l-5.6,0.1v-9.1L286,422v19.5h-17.1v-53.7h17.5v6.6h6.4v6.3h6.2
						"/>
					<path class="st10" d="M319.7,387.8h6.6h37V402H337v25.3h26.2v14.2h-37h-6.6v-6.6"/>
				</g>
			</g>
		</g>
		<g>
			<path class="st11" d="M46.4,433.3v-40.6H53v-6.6h39.1v14.2h-28v25.2h13.8v-9.7h14.2v24.1H53v-6.6L46.4,433.3L46.4,433.3z"/>
		</g>
		<g>
			<path class="st12" d="M137.8,385.7v53.7h-17.5v-14.4h-6v14.4H96.8v-53.7H137.8z M114.5,412h5.6v-13.6h-5.6V412z"/>
		</g>
		<g>
			<path class="st13" d="M160.9,385.7v6.6h6.8v6.1h2.5v-6.1h6.8v-6.6h16.6v53.7H177v-22.8h-3v5.9h-10.5v-5.9h-2.5v22.8h-17.1v-53.7
				H160.9z"/>
		</g>
		<g>
			<path class="st14" d="M241.4,385.7v14.2h-22.9v5.5h22.9v14.4h-22.9v5.5h22.9v14.2h-40.6v-53.7L241.4,385.7L241.4,385.7z"/>
		</g>
		<g>
			<path class="st15" d="M266.4,385.7v53.7h-16.9v-53.7H266.4z"/>
		</g>
		<g>
			<path class="st15" d="M300.5,385.7h16.1v53.7h-13h-4.4v-6.6v-3.8l-5.6,0.1v-9.1l-6.1-0.1v19.5h-17.1v-53.7h17.5v6.6h6.4v6.3h6.2"
				/>
		</g>
		<g>
			<path class="st15" d="M321.2,385.7h6.6h37v14.2h-26.2v25.3h26.2v14.2h-37h-6.6v-6.6"/>
		</g>
	</g>
</g>
<g id="Layer_7">
	<path class="st16" d="M108.6,423.4v48.6h15.5v-13.1h5.6v13.1h15.8v-48.6H108.6z M130.2,447.7h-5.9v-13.5h5.9V447.7z"/>
	<polygon class="st16" points="150.4,423.4 150.4,471.9 165.5,471.9 165.5,450.6 168.2,450.6 168.2,456.6 177.7,456.6 177.7,450.7 
		180.5,450.7 180.5,471.9 195.3,471.9 195.3,423.4 180.2,423.4 180.2,429.2 174.1,429.2 174.1,434.8 171.5,434.8 171.5,429.2 
		165.5,429.2 165.5,423.4 	"/>
	<polyline class="st16" points="63.1,466.3 68.8,466.3 68.8,471.9 104.1,471.9 104.1,449.4 86.3,449.4 86.3,455.7 91.7,455.7 
		91.7,459.1 78.9,459.1 78.9,435.8 104.1,435.8 104.1,423.4 69.2,423.4 69.2,429.4 63.1,429.4 	"/>
	<polygon class="st16" points="200.6,423.4 200.6,471.9 237.1,471.9 237.1,459.4 216.4,459.4 216.4,453.8 237.1,453.8 237.1,441.5 
		216.5,441.5 216.5,435.4 237.1,435.4 237.1,423.4 	"/>
	<polygon class="st17" points="107.2,420.5 72.4,420.5 72.4,426.5 66.3,426.5 66.3,463.4 72,463.4 72,469.1 107.2,469.1 
		107.2,446.6 89.4,446.6 89.4,452.8 94.8,452.8 94.8,456.3 82,456.3 82,432.9 107.2,432.9 	"/>
	<path class="st17" d="M111.8,420.5v48.6h15.5V456h5.6v13.1h15.8v-48.6H111.8z M133.4,444.8h-5.9v-13.5h5.9V444.8z"/>
	<polygon class="st17" points="154,420.5 154,469.1 169.1,469.1 169.1,447.7 171.9,447.7 171.9,453.7 181.3,453.7 181.3,447.8 
		184.1,447.8 184.1,469.1 199,469.1 199,420.5 183.9,420.5 183.9,426.3 177.7,426.3 177.7,431.9 175.1,431.9 175.1,426.3 
		169.1,426.3 169.1,420.5 	"/>
	<polygon class="st17" points="204,420.5 204,469.1 240.6,469.1 240.6,456.5 219.8,456.5 219.8,450.9 240.6,450.9 240.6,438.6 
		220,438.6 220,432.5 240.6,432.5 240.6,420.5 	"/>
	<polygon class="st16" points="309.8,423.3 309.8,471.9 346.8,471.9 346.8,458.1 324.5,458.1 324.5,435.4 346.8,435.4 346.8,423.3 	
		"/>
	<rect x="244.1" y="423.4" class="st16" width="14.3" height="48.6"/>
	<g>
		<rect x="248" y="420.5" class="st18" width="14.3" height="48.6"/>
	</g>
	<polygon class="st16" points="264.5,423.4 264.5,471.9 278.8,471.9 278.8,454.9 283.5,454.9 283.5,462.7 289,462.7 289,471.9 
		303,471.9 303,423.4 288.8,423.4 288.8,440.5 283.8,440.5 283.8,432.4 278.4,432.4 278.4,423.4 	"/>
	<polygon class="st18" points="268.1,420.5 268.1,469.1 282.3,469.1 282.3,452 287,452 287,459.8 292.6,459.8 292.6,469.1 
		306.5,469.1 306.5,420.5 292.3,420.5 292.3,437.6 287.3,437.6 287.3,429.5 281.9,429.5 281.9,420.5 	"/>
	<polygon class="st18" points="312.6,420.5 312.6,469.1 349.6,469.1 349.6,455.2 327.3,455.2 327.3,432.6 349.6,432.6 349.6,420.5 	
		"/>
	<polygon class="st19" points="63.1,279.3 206.9,331.2 350.3,278.4 258.6,256.1 158.4,255.6 	"/>
	<polygon class="st18" points="63.1,279.4 63.1,309.5 207.5,393 206.9,331.3 	"/>
	<path class="st20" d="M159.1,249.4c0,2.3,0,4.5,0,6.8c0,4.4,0,8.8,0,13.1c0,1.6,0,3.1,0,4.7c0,1.9-0.3,3.7,0.7,5.4
		c0.3,0.6,0.7,1.3,1.1,1.9c1.2,1.9,2.5,3.7,4,5.3c2,2.3,4.4,4.4,6.9,6.2c3.2,2.3,6.6,4.2,10.2,5.7c4.5,1.9,9.3,3.1,14.1,3.8
		c5.2,0.7,10.2,0.7,15.4,0.6c0.1,0,0.1,0,0.2,0c0.2,0,0.4,0,0.6,0c0.3,0,0.6,0,0.9,0c0.4,0,0.8,0,1.3-0.1c0.5,0,1-0.1,1.6-0.1
		c0.6-0.1,1.2-0.1,1.8-0.2c0.7-0.1,1.4-0.2,2-0.3c0.8-0.1,1.5-0.2,2.3-0.4c0.8-0.1,1.6-0.3,2.4-0.5c0.9-0.2,1.7-0.4,2.6-0.6
		c0.9-0.2,1.8-0.5,2.7-0.7c0.9-0.3,1.8-0.5,2.7-0.9c0.9-0.3,1.9-0.6,2.8-1c0.9-0.4,1.9-0.8,2.8-1.2c0.9-0.4,1.9-0.9,2.8-1.3
		c0.9-0.5,1.8-1,2.7-1.5c0.9-0.5,1.8-1.1,2.7-1.7c0.9-0.6,1.7-1.3,2.5-2c0.8-0.7,1.6-1.4,2.4-2.2c0.8-0.8,1.5-1.6,2.2-2.4
		c0.7-0.9,1.4-1.8,2-2.7c0.6-1,1.3-1.9,1.8-2.9c0.3-0.5,0.5-1,0.8-1.5c0.1-0.3,0.3-0.5,0.4-0.8c0.1-0.3,0.3-0.5,0.3-0.9
		c0,0,0-0.1,0-0.1c0-0.1,0-0.2,0-0.4c0-0.4,0-0.8,0-1.1c0-0.5,0-1.1,0-1.6c0-0.7,0-1.4,0-2c0-0.8,0-1.6,0-2.4c0-0.9,0-1.8,0-2.6
		c0-1,0-1.9,0-2.8c0-1,0-2,0-3c0-1,0-2,0-3s0-2,0-3c0-1,0-1.9,0-2.9c0-0.9,0-1.8,0-2.7c0-0.8,0-1.7,0-2.5c0-0.7,0-1.5,0-2.2
		c0-0.6,0-1.2,0-1.8c0-0.5,0-0.9,0-1.3c0-0.3,0-0.5,0-0.8c0,0,0-0.2,0-0.2c0,0-50.7-26.6-50.7-26.6l-48.9,27.8
		C159.1,241.8,159.1,249.4,159.1,249.4z"/>
	<ellipse class="st9" cx="208.7" cy="243.5" rx="50.3" ry="29.9"/>
	<path class="st20" d="M173.8,223.1c0,6.2,0,12.3,0,18.5c0,2.4,0.8,3.8,2.2,5.8c1.6,2.2,3.5,4.2,5.6,5.9c7.3,5.8,16.6,8.1,25.7,8.3
		c1.5,0,3-0.1,4.5-0.1c0,0,26.5-0.1,34.4-18.4v-26.3l-36.9-19.1l-35.6,20C173.8,217.7,173.8,223.1,173.8,223.1z"/>
	<ellipse class="st9" cx="210.2" cy="219.3" rx="36.4" ry="21.6"/>
	<path class="st21" d="M195.2,125.2c-0.6,0.3-1.2,0.5-1.8,0.8l-0.2-17.3h30.4l0.1,6.4C214.6,117.5,205,120.8,195.2,125.2z"/>
	<path class="st21" d="M225.5,219.3c0,0-5.2,6.8-16.1,7.1c-11,0.3-15-7.1-15-7.1l-0.3-26.4l-0.2-17.9l-0.3-32.5
		c2.6-1.3,5.2-2.6,8-3.8c7.8-3.5,15.4-6.4,22.5-8.7l0.5,32.1l0.3,19.7L225.5,219.3z"/>
	<path class="st22" d="M277.5,123.3c-5.6-11.9-27.4-14.3-53.8-7.8l0.2,14.8c19.6-6.2,34.8-7.1,37.5-1.4c3.2,6.9-12.8,21.1-37,33.5
		c-3.1,1.6-6.4,3.2-9.8,4.7c-7.2,3.3-14.3,6-20.9,8.1c-20.3,6.6-36.3,7.8-39.1,1.9c-3.3-7.1,13.6-21.8,38.7-34.4l-0.2-16.4
		c-37,17.2-60.8,43.5-53.4,59.1c5.6,11.9,27.5,14.4,54.1,7.7c9-2.3,18.6-5.6,28.3-10c0.8-0.4,1.7-0.8,2.5-1.2
		C261.3,164.9,284.8,138.9,277.5,123.3z"/>
	<path class="st21" d="M224,130c-7,2.2-14.7,5.1-22.5,8.7c-2.7,1.2-5.4,2.5-8,3.8l-0.2-16.4c0.6-0.3,1.2-0.6,1.8-0.8
		c9.7-4.4,19.4-7.8,28.5-10L224,130z"/>
	<path class="st23" d="M237.6,112.9v8.8c0,0,20.5-2.6,23.1,6.2c0,0-5.4-7.4-36.8,2.5l-0.2-14.8C223.7,115.5,234.5,113.2,237.6,112.9
		z"/>
	<path class="st23" d="M179.4,133.7L179.4,133.7z"/>
	<path class="st23" d="M179.4,133.7L179.4,133.7z"/>
	<path class="st23" d="M179.9,133.4v10.4c0,0-30.1,21.1-25.3,29.9c0,0,2-11.9,38.9-30.9v-16.4C193.5,126.4,185.3,130.1,179.9,133.4z
		"/>
	<polygon class="st24" points="206.9,331.3 206.9,393 350.3,308.7 350.3,278.4 	"/>
	<polygon class="st25" points="228,284.1 257.4,292.2 257.4,307.1 228.4,296.6 	"/>
	<polygon class="st26" points="273.5,267.2 273.5,281 303.1,289.8 303,274.9 	"/>
	<polygon class="st27" points="207.1,310.4 207.1,325.6 236.5,315.2 236.5,293.8 	"/>
	<polygon class="st18" points="206.8,279.3 177.6,293.4 207.1,310.4 236.5,293.8 	"/>
	<polygon class="st28" points="177.6,293.4 177.6,314.8 207.1,325.6 207.1,310.4 	"/>
	<polygon class="st24" points="207,280.3 189.7,298.3 224.6,298.4 	"/>
	<polygon class="st29" points="258.1,273.6 228,284.1 257.4,292.2 287.2,281.8 	"/>
	<polygon class="st30" points="287.2,281.8 257.4,292.2 257.4,307.1 287.4,296.2 	"/>
	<path class="st19" d="M257.4,274.7c-6.3,0-11.4,3.3-11.4,7.4s5.1,7.4,11.4,7.4s11.4-3.3,11.4-7.4S263.7,274.7,257.4,274.7z
		 M257.4,283.2c-2.6,0-4.8-0.7-4.8-1.5c0-0.8,2.1-1.5,4.8-1.5s4.8,0.7,4.8,1.5C262.2,282.5,260,283.2,257.4,283.2z"/>
	<polygon class="st31" points="303,274.9 332.7,258.1 332.7,279.2 303.1,289.8 	"/>
	<polygon class="st24" points="302.9,274.9 332.6,258.1 303.7,250.5 273.4,267.2 	"/>
	<polygon class="st32" points="299.7,272.7 306.6,272.7 306.3,263.9 321.7,261.6 320.8,256.5 306.5,258.6 306.4,252.8 299.6,252.8 
		299.7,259.6 283.9,262.2 283.9,267.6 299.5,265.1 	"/>
	<circle class="st18" cx="207.9" cy="57" r="55.9"/>
	<circle class="st33" cx="202.4" cy="48.1" r="46.1"/>
	<polygon class="st19" points="172.5,30.2 172.5,43.8 177,43.8 177,83.9 191.8,83.9 191.8,33.8 188.1,30.1 	"/>
	<path class="st19" d="M234.7,30.1h-32.5l-4.2,5.5V63h26.9v7.2H198V84H235l5.3-5.3v-43L234.7,30.1z M225.1,50.2H213v-7.3h12.1V50.2z
		"/>
	
		<ellipse transform="matrix(0.7071 -0.7071 0.7071 0.7071 37.0552 137.7168)" class="st34" cx="184.8" cy="24.1" rx="15.3" ry="11.4"/>
</g>
<g id="Layer_8">
	<g>
		<polygon class="st35" points="5.4,105.8 303.8,389.3 329.1,27.3 		"/>
		<g class="st36">
			<g>
				
					<image style="overflow:visible;enable-background:new    ;" width="359" height="395" xlink:href="B0BC4C3B.png"  transform="matrix(0.9976 0 0 0.9976 -8.6862 8.2411)">
				</image>
			</g>
		</g>
	</g>
	<polygon class="st24" points="206.9,331.3 290.4,300.2 285.5,346.8 207.5,393 	"/>
	<polygon class="st19" points="63.1,279.4 206.9,331.3 301.9,295.7 170,252.7 	"/>
</g>
<g id="Layer_9">
	<path class="st20" d="M159.1,249.4c0,2.3,0,4.5,0,6.8c0,4.4,0,8.8,0,13.1c0,1.6,0,3.1,0,4.7c0,1.9-0.3,3.7,0.7,5.4
		c0.3,0.6,0.7,1.3,1.1,1.9c1.2,1.9,2.5,3.7,4,5.3c2,2.3,4.4,4.4,6.9,6.2c3.2,2.3,6.6,4.2,10.2,5.7c4.5,1.9,9.3,3.1,14.1,3.8
		c5.2,0.7,10.2,0.7,15.4,0.6c0.1,0,0.1,0,0.2,0c0.2,0,0.4,0,0.6,0c0.3,0,0.6,0,0.9,0c0.4,0,0.8,0,1.3-0.1c0.5,0,1-0.1,1.6-0.1
		c0.6-0.1,1.2-0.1,1.8-0.2c0.7-0.1,1.4-0.2,2-0.3c0.8-0.1,1.5-0.2,2.3-0.4c0.8-0.1,1.6-0.3,2.4-0.5c0.9-0.2,1.7-0.4,2.6-0.6
		c0.9-0.2,1.8-0.5,2.7-0.7c0.9-0.3,1.8-0.5,2.7-0.9c0.9-0.3,1.9-0.6,2.8-1c0.9-0.4,1.9-0.8,2.8-1.2c0.9-0.4,1.9-0.9,2.8-1.3
		c0.9-0.5,1.8-1,2.7-1.5c0.9-0.5,1.8-1.1,2.7-1.7c0.9-0.6,1.7-1.3,2.5-2c0.8-0.7,1.6-1.4,2.4-2.2c0.8-0.8,1.5-1.6,2.2-2.4
		c0.7-0.9,1.4-1.8,2-2.7c0.6-1,1.3-1.9,1.8-2.9c0.3-0.5,0.5-1,0.8-1.5c0.1-0.3,0.3-0.5,0.4-0.8c0.1-0.3,0.3-0.5,0.3-0.9
		c0,0,0-0.1,0-0.1c0-0.1,0-0.2,0-0.4c0-0.4,0-0.8,0-1.1c0-0.5,0-1.1,0-1.6c0-0.7,0-1.4,0-2c0-0.8,0-1.6,0-2.4c0-0.9,0-1.8,0-2.6
		c0-1,0-1.9,0-2.8c0-1,0-2,0-3c0-1,0-2,0-3s0-2,0-3c0-1,0-1.9,0-2.9c0-0.9,0-1.8,0-2.7c0-0.8,0-1.7,0-2.5c0-0.7,0-1.5,0-2.2
		c0-0.6,0-1.2,0-1.8c0-0.5,0-0.9,0-1.3c0-0.3,0-0.5,0-0.8c0,0,0-0.2,0-0.2c0,0-50.7-26.6-50.7-26.6l-48.9,27.8
		C159.1,241.8,159.1,249.4,159.1,249.4z"/>
	<ellipse class="st9" cx="208.7" cy="243.5" rx="50.3" ry="29.9"/>
	<path class="st20" d="M173.8,223.1c0,6.2,0,12.3,0,18.5c0,2.4,0.8,3.8,2.2,5.8c1.6,2.2,3.5,4.2,5.6,5.9c7.3,5.8,16.6,8.1,25.7,8.3
		c1.5,0,3-0.1,4.5-0.1c0,0,26.5-0.1,34.4-18.4v-26.3l-36.9-19.1l-35.6,20C173.8,217.7,173.8,223.1,173.8,223.1z"/>
	<ellipse class="st9" cx="210.2" cy="219.3" rx="36.4" ry="21.6"/>
	<circle class="st18" cx="207.9" cy="57" r="55.9"/>
	<circle class="st33" cx="202.4" cy="48.1" r="46.1"/>
	<polygon class="st19" points="172.5,30.2 172.5,43.8 177,43.8 177,83.9 191.8,83.9 191.8,33.8 188.1,30.1 	"/>
	<path class="st19" d="M234.7,30.1h-32.5l-4.2,5.5V63h26.9v7.2H198V84H235l5.3-5.3v-43L234.7,30.1z M225.1,50.2H213v-7.3h12.1V50.2z
		"/>
	
		<ellipse transform="matrix(0.7071 -0.7071 0.7071 0.7071 37.0552 137.7168)" class="st34" cx="184.8" cy="24.1" rx="15.3" ry="11.4"/>
	<polygon class="st25" points="228,284.1 257.4,292.2 257.4,307.1 228.4,296.6 	"/>
	<polygon class="st27" points="207.1,310.4 207.1,325.6 236.5,315.2 236.5,293.8 	"/>
	<polygon class="st29" points="258.1,273.6 228,284.1 257.4,292.2 287.2,281.8 	"/>
	<polygon class="st18" points="206.8,279.3 177.6,293.4 207.1,310.4 236.5,293.8 	"/>
	<polygon class="st28" points="177.6,293.4 177.6,314.8 207.1,325.6 207.1,310.4 	"/>
	<polygon class="st24" points="207,280.3 189.7,298.3 224.6,298.4 	"/>
	<polygon class="st30" points="287.2,281.8 257.4,292.2 257.4,307.1 287.4,296.2 	"/>
	<path class="st19" d="M257.4,274.7c-6.3,0-11.4,3.3-11.4,7.4s5.1,7.4,11.4,7.4s11.4-3.3,11.4-7.4S263.7,274.7,257.4,274.7z
		 M257.4,283.2c-2.6,0-4.8-0.7-4.8-1.5c0-0.8,2.1-1.5,4.8-1.5s4.8,0.7,4.8,1.5C262.2,282.5,260,283.2,257.4,283.2z"/>
	<path class="st21" d="M225.5,219.3c0,0-5.2,6.8-16.1,7.1c-11,0.3-15-7.1-15-7.1l-0.3-26.4l-0.2-17.9l-0.3-32.5
		c2.6-1.3,5.2-2.6,8-3.8c7.8-3.5,15.4-6.4,22.5-8.7l0.5,32.1l0.3,19.7L225.5,219.3z"/>
	<path class="st22" d="M277.5,123.3c-5.6-11.9-27.4-14.3-53.8-7.8l0.2,14.8c19.6-6.2,34.8-7.1,37.5-1.4c3.2,6.9-12.8,21.1-37,33.5
		c-3.1,1.6-6.4,3.2-9.8,4.7c-7.2,3.3-14.3,6-20.9,8.1c-20.3,6.6-36.3,7.8-39.1,1.9c-3.3-7.1,13.6-21.8,38.7-34.4l-0.2-16.4
		c-37,17.2-60.8,43.5-53.4,59.1c5.6,11.9,27.5,14.4,54.1,7.7c9-2.3,18.6-5.6,28.3-10c0.8-0.4,1.7-0.8,2.5-1.2
		C261.3,164.9,284.8,138.9,277.5,123.3z"/>
	<path class="st23" d="M237.6,112.9v8.8c0,0,20.5-2.6,23.1,6.2c0,0-5.4-7.4-36.8,2.5l-0.2-14.8C223.7,115.5,234.5,113.2,237.6,112.9
		z"/>
	<path class="st23" d="M179.9,133.4v10.4c0,0-30.1,21.1-25.3,29.9c0,0,2-11.9,38.9-30.9v-16.4C193.5,126.4,185.3,130.1,179.9,133.4z
		"/>
</g>
</svg>
