<?xml version="1.0" encoding="utf-8"?>
<!-- Generator: Adobe Illustrator 24.1.2, SVG Export Plug-In . SVG Version: 6.00 Build 0)  -->
<svg version="1.1" id="Layer_1" xmlns="http://www.w3.org/2000/svg" xmlns:xlink="http://www.w3.org/1999/xlink" x="0px" y="0px"
	 viewBox="0 0 324.12 427.87" style="enable-background:new 0 0 324.12 427.87;" xml:space="preserve">
<style type="text/css">
	.st0{fill:#0C5178;}
	.st1{fill:#EC9218;}
	.st2{fill:#65BC48;}
	.st3{fill:#E3202C;}
	.st4{fill:#125175;}
	.st5{fill:#FFFFFF;}
	.st6{fill:#3C55A3;}
	.st7{fill:#67BC48;}
</style>
<g id="Layer_2_1_">
	<path class="st0" d="M161.78,0L10.21,88.56v133.21c0,0,24.19-54.7,78.14-59.16c0,0,11.28-8.19,72.43,18.6
		c0,0,53.34-24.19,76.41-18.6c23.07,5.58,51.35,18.23,75.53,59.16V90.42L161.78,0z M254.67,155.17
		c-37.58-15.26-92.9,15.26-92.9,15.26c-54.2-32.37-93.89-15.26-93.89-15.26v-33.86l93.89-53.58l92.9,53.95V155.17z"/>
	<g>
		<circle class="st1" cx="231.74" cy="210.7" r="10.6"/>
		<circle class="st0" cx="252.95" cy="233.17" r="10.6"/>
		<circle class="st2" cx="232.58" cy="252.14" r="10.6"/>
		<circle class="st3" cx="209.56" cy="233.17" r="10.6"/>
	</g>
	<g>
		<rect x="79.83" y="203.41" class="st0" width="24.2" height="53.85"/>
		<rect x="64.4" y="220.33" class="st0" width="55.02" height="21.61"/>
	</g>
	<g>
		<polygon class="st4" points="162.47,277.41 162.47,277.41 162.47,277.41 		"/>
		<path class="st0" d="M324.11,283.22c-0.12-8.98-1.22-17.93-2.87-26.75c0.85,4.54-0.34,10.36-0.77,14.88
			c-0.96,10.14-2.65,20.37-6.07,29.99c-2.68,7.56-6.67,15.54-13.53,20.13c-3.15,2.1-6.88,3.39-10.67,3.47
			c-4.48,0.1-8.97-0.13-13.41-0.74c-4.27-0.59-8.48-1.54-12.58-2.86c-4.07-1.3-8.03-2.98-11.82-4.96
			c-3.92-2.05-7.67-4.44-11.22-7.07c-8.07-5.98-14.6-13.82-22.95-19.45c-2.23-1.51-4.82-2.61-7.29-3.65
			c-2.67-1.12-5.4-2.09-8.16-2.94c-3.34-1.03-6.74-1.88-10.16-2.59c-4.08-0.85-8.21-1.5-12.35-2c-4.89-0.58-9.81-0.95-14.73-1.16
			c-1.02-0.05-2.04-0.07-3.06-0.1v-0.01c-0.04,0-0.07,0-0.1,0c-0.04,0-0.07,0-0.1,0v0.01c-1.02,0.03-2.04,0.06-3.06,0.1
			c-4.92,0.21-9.84,0.58-14.73,1.16c-4.14,0.5-8.27,1.15-12.35,2c-3.42,0.71-6.82,1.56-10.16,2.59c-2.76,0.85-5.49,1.82-8.16,2.94
			c-2.47,1.04-5.06,2.14-7.29,3.65c-8.35,5.63-14.88,13.47-22.95,19.45c-3.55,2.63-7.3,5.02-11.22,7.07
			c-3.79,1.98-7.75,3.66-11.82,4.96c-4.1,1.32-8.31,2.27-12.58,2.86c-4.44,0.61-8.93,0.84-13.41,0.74
			c-3.79-0.08-7.52-1.37-10.67-3.47c-6.86-4.59-10.85-12.57-13.53-20.13c-3.42-9.62-5.11-19.85-6.07-29.99
			c-0.43-4.52-1.62-10.34-0.77-14.88c-1.65,8.82-2.75,17.77-2.87,26.75c-0.24,19.28,4.88,47.32,27.64,51.37
			c16.69,2.97,33.91,0.1,48.98-7.53c6.27-3.17,11.27-7.5,16.98-11.44c2.16-1.49,1.75-1.59,4.21-0.34c1.59,0.8,3.11,1.79,4.65,2.68
			c2.9,1.68,5.81,3.35,8.71,5.03c16.82,9.72,33.65,19.45,50.47,29.17v0.12c0.03-0.02,0.07-0.04,0.1-0.06
			c0.03,0.02,0.07,0.04,0.1,0.06v-0.12c16.82-9.72,33.65-19.45,50.47-29.17c2.9-1.68,5.81-3.35,8.71-5.03
			c1.54-0.89,3.06-1.88,4.65-2.68c2.46-1.25,2.05-1.15,4.21,0.34c5.71,3.94,10.71,8.27,16.98,11.44
			c15.07,7.63,32.29,10.5,48.98,7.53C319.23,330.54,324.35,302.5,324.11,283.22z"/>
		<polygon class="st4" points="162.26,277.41 162.26,277.41 162.26,277.41 		"/>
	</g>
	<g>
		<g>
			<g>
				<path class="st5" d="M0,416.5v-40.57h6.58v-6.58h39.13v14.18H17.74v25.15h13.77v-9.73h14.18v24.12H6.56v-6.58H0V416.5z"/>
				<path class="st5" d="M91.4,368.95v53.72H73.86v-14.39H67.9v14.39H50.36v-53.72H91.4z M68.11,395.19h5.55v-13.57h-5.55V395.19z"
					/>
				<path class="st5" d="M114.52,368.95v6.58h6.78v6.1h2.54v-6.1h6.78v-6.58h16.65v53.72h-16.65v-22.82h-3.01v5.89h-10.55v-5.89
					h-2.54v22.82H97.39v-53.72H114.52z"/>
				<path class="st5" d="M194.99,368.95v14.18H172.1v5.48h22.89V403H172.1v5.48h22.89v14.18h-40.63v-53.72h40.63V368.95z"/>
				<path class="st5" d="M220.03,368.95v53.72h-16.92v-53.72H220.03z"/>
				<path class="st5" d="M254.07,368.95h16.13v53.72h-12.98h-4.42v-6.58v-3.76l-5.62,0.09v-9.12l-6.07-0.09v19.46h-17.13v-53.72
					h17.54v6.58h6.37v6.3h6.17"/>
				<path class="st5" d="M274.85,368.95h6.58h37v14.18h-26.24v25.35h26.24v14.18h-37h-6.58v-6.58"/>
			</g>
			<g>
				<g>
					<path d="M3,413.5v-40.57h6.58v-6.58h39.13v14.18H20.74v25.15h13.77v-9.73h14.18v24.12H9.56v-6.58H3V413.5z"/>
					<path d="M94.4,365.95v53.72H76.86v-14.39H70.9v14.39H53.36v-53.72H94.4z M71.11,392.19h5.55v-13.57h-5.55V392.19z"/>
					<path d="M117.52,365.95v6.58h6.78v6.1h2.54v-6.1h6.78v-6.58h16.65v53.72h-16.65v-22.82h-3.01v5.89h-10.55v-5.89h-2.54v22.82
						h-17.13v-53.72H117.52z"/>
					<path d="M197.99,365.95v14.18H175.1v5.48h22.89V400H175.1v5.48h22.89v14.18h-40.63v-53.72h40.63V365.95z"/>
					<path d="M223.03,365.95v53.72h-16.92v-53.72H223.03z"/>
					<path d="M257.07,365.95h16.13v53.72h-12.98h-4.42v-6.58v-3.76l-5.62,0.09v-9.12l-6.07-0.09v19.46h-17.13v-53.72h17.54v6.58
						h6.37v6.3h6.17"/>
					<path d="M277.85,365.95h6.58h37v14.18h-26.24v25.35h26.24v14.18h-37h-6.58v-6.58"/>
				</g>
			</g>
		</g>
		<g>
			<path class="st3" d="M4.52,411.47V370.9h6.58v-6.58h39.13v14.18H22.27v25.15h13.77v-9.73h14.18v24.12H11.09v-6.58H4.52V411.47z"
				/>
		</g>
		<g>
			<path class="st1" d="M95.93,363.91v53.72H78.39v-14.39h-5.96v14.39H54.89v-53.72H95.93z M72.63,390.15h5.55v-13.56h-5.55V390.15z
				"/>
		</g>
		<g>
			<path class="st6" d="M119.05,363.91v6.58h6.78v6.1h2.54v-6.1h6.78v-6.58h16.65v53.72h-16.65v-22.82h-3.01v5.89h-10.55v-5.89
				h-2.54v22.82h-17.13v-53.72H119.05z"/>
		</g>
		<g>
			<path class="st7" d="M199.51,363.91v14.18h-22.89v5.48h22.89v14.39h-22.89v5.48h22.89v14.18h-40.63V363.9h40.63V363.91z"/>
		</g>
		<g>
			<g>
				<path class="st0" d="M224.56,363.91v53.72h-16.92v-53.72H224.56z"/>
			</g>
		</g>
		<g>
			<g>
				<path class="st0" d="M258.6,363.91h16.13v53.72h-12.98h-4.42v-6.58v-3.76l-5.62,0.09v-9.12l-6.07-0.09v19.46h-17.13v-53.72
					h17.54v6.58h6.37v6.3h6.17"/>
			</g>
		</g>
		<g>
			<g>
				<path class="st0" d="M279.38,363.91h6.58h37v14.18h-26.24v25.35h26.24v14.18h-37h-6.58v-6.58"/>
			</g>
		</g>
	</g>
</g>
</svg>
